# xmcd
#
# Track frame offsets:
#	150
#	15557
#	32292
#	49777
#
# Disc length: 885 seconds
#
# Revision: 0
# Processed by: cddbd v1.5.2PL0 Copyright (c) Steve Scherf et al.
# Submitted via: audiograbber 1.83.01
#
DISCID=21037304
DTITLE=Walter Wolfman Washingon - Glasshouse Limited Edition
DYEAR=1900
DGENRE=
TTITLE0=Glasshouse
TTITLE1=I Had A Dream
TTITLE2=Use Me
TTITLE3=Piano Solo
EXTD=
EXTT0=
EXTT1=
EXTT2=
EXTT3=
PLAYORDER=
